<svg width="179" height="31" viewBox="0 0 179 31" fill="none" xmlns="http://www.w3.org/2000/svg">
<path opacity="0.5" d="M5.41172 25.72H4.41172V26.72H5.41172V25.72ZM9.89172 25.04L9.18461 24.3329L9.1739 24.3436L9.16352 24.3546L9.89172 25.04ZM9.89172 18L9.16352 18.6854L9.1739 18.6964L9.18461 18.7071L9.89172 18ZM5.41172 17.32V16.32H4.41172V17.32H5.41172ZM13.4917 28.32L14.135 29.0858L14.1438 29.0782L13.4917 28.32ZM0.451719 30H-0.548281V31H0.451719V30ZM0.451719 1.36V0.359999H-0.548281V1.36H0.451719ZM13.6517 1.36H14.6517V0.359999H13.6517V1.36ZM13.6517 5.64V6.64H14.6517V5.64H13.6517ZM5.41172 5.64V4.64H4.41172V5.64H5.41172ZM5.41172 13.04H4.41172V14.04H5.41172V13.04ZM13.4917 14.72L14.1349 13.9543L13.4917 14.72ZM5.41172 26.72H7.97172V24.72H5.41172V26.72ZM7.97172 26.72C8.99522 26.72 9.94241 26.4452 10.6199 25.7254L9.16352 24.3546C8.98769 24.5414 8.65488 24.72 7.97172 24.72V26.72ZM10.5988 25.7471C11.2393 25.1066 11.5717 24.3057 11.5717 23.4H9.57172C9.57172 23.7743 9.45078 24.0667 9.18461 24.3329L10.5988 25.7471ZM11.5717 23.4V19.6H9.57172V23.4H11.5717ZM11.5717 19.6C11.5717 18.7084 11.2302 17.9243 10.5988 17.2929L9.18461 18.7071C9.45987 18.9824 9.57172 19.265 9.57172 19.6H11.5717ZM10.6199 17.3146C9.94241 16.5948 8.99522 16.32 7.97172 16.32V18.32C8.65488 18.32 8.98769 18.4986 9.16352 18.6854L10.6199 17.3146ZM7.97172 16.32H5.41172V18.32H7.97172V16.32ZM4.41172 17.32V25.72H6.41172V17.32H4.41172ZM14.4917 19.6V23.4H16.4917V19.6H14.4917ZM14.4917 23.4C14.4917 25.3099 13.9054 26.6453 12.8397 27.5618L14.1438 29.0782C15.7447 27.7013 16.4917 25.7568 16.4917 23.4H14.4917ZM12.8485 27.5543C11.7495 28.4774 10.1652 29 7.97172 29V31C10.4716 31 12.5672 30.4026 14.1349 29.0857L12.8485 27.5543ZM7.97172 29H0.451719V31H7.97172V29ZM1.45172 30V1.36H-0.548281V30H1.45172ZM0.451719 2.36H13.6517V0.359999H0.451719V2.36ZM12.6517 1.36V5.64H14.6517V1.36H12.6517ZM13.6517 4.64H5.41172V6.64H13.6517V4.64ZM4.41172 5.64V13.04H6.41172V5.64H4.41172ZM5.41172 14.04H7.97172V12.04H5.41172V14.04ZM7.97172 14.04C10.1652 14.04 11.7495 14.5626 12.8485 15.4857L14.1349 13.9543C12.5672 12.6374 10.4716 12.04 7.97172 12.04V14.04ZM12.8485 15.4857C13.9053 16.3734 14.4917 17.6893 14.4917 19.6H16.4917C16.4917 17.244 15.7448 15.3066 14.1349 13.9543L12.8485 15.4857ZM27.5217 5.56L26.945 6.37697L26.9721 6.39604L27.0003 6.41328L27.5217 5.56ZM24.2417 5.56L24.7632 6.41328L24.78 6.40299L24.7964 6.39205L24.2417 5.56ZM24.2417 25.88L23.687 26.712L23.7034 26.723L23.7203 26.7333L24.2417 25.88ZM27.5217 25.88L28.065 26.7196L28.0764 26.712L27.5217 25.88ZM20.7617 2.36L21.3164 3.19206L21.3199 3.18972L20.7617 2.36ZM31.0017 2.36L30.4365 3.18493L30.4452 3.19091L30.4541 3.1967L31.0017 2.36ZM31.0017 29L31.5564 29.8321L31.5599 29.8297L31.0017 29ZM20.7617 29L20.1965 29.8249L20.2052 29.8309L20.2141 29.8367L20.7617 29ZM29.2417 24.44V6.96H27.2417V24.44H29.2417ZM29.2417 6.96C29.2417 6.0286 28.866 5.20956 28.0432 4.70672L27.0003 6.41328C27.1374 6.4971 27.2417 6.61139 27.2417 6.96H29.2417ZM28.0984 4.74303C27.4587 4.29145 26.7188 4.08 25.9217 4.08V6.08C26.3513 6.08 26.6781 6.18855 26.945 6.37697L28.0984 4.74303ZM25.9217 4.08C25.1067 4.08 24.349 4.28662 23.687 4.72795L24.7964 6.39205C25.0944 6.19338 25.4567 6.08 25.9217 6.08V4.08ZM23.7203 4.70672C22.8974 5.20956 22.5217 6.0286 22.5217 6.96H24.5217C24.5217 6.61139 24.626 6.49711 24.7632 6.41328L23.7203 4.70672ZM22.5217 6.96V24.44H24.5217V6.96H22.5217ZM22.5217 24.44C22.5217 25.3713 22.8948 26.1839 23.687 26.712L24.7964 25.0479C24.6286 24.9361 24.5217 24.7887 24.5217 24.44H22.5217ZM23.7203 26.7333C24.378 27.1352 25.1236 27.32 25.9217 27.32V25.32C25.4398 25.32 25.0654 25.2114 24.7632 25.0267L23.7203 26.7333ZM25.9217 27.32C26.7009 27.32 27.4286 27.1314 28.065 26.7196L26.9785 25.0404C26.7082 25.2153 26.3692 25.32 25.9217 25.32V27.32ZM28.0764 26.712C28.8686 26.1839 29.2417 25.3713 29.2417 24.44H27.2417C27.2417 24.7887 27.1348 24.9361 26.967 25.0479L28.0764 26.712ZM19.6017 24.52V6.84H17.6017V24.52H19.6017ZM19.6017 6.84C19.6017 5.08147 20.2055 3.93264 21.3164 3.19205L20.207 1.52795C18.4379 2.70736 17.6017 4.54519 17.6017 6.84H19.6017ZM21.3199 3.18972C22.6027 2.32674 24.1232 1.88 25.9217 1.88V-0.120002C23.7736 -0.120002 21.8541 0.419926 20.2035 1.53028L21.3199 3.18972ZM25.9217 1.88C27.6908 1.88 29.1818 2.32525 30.4365 3.18493L31.567 1.53507C29.9416 0.421417 28.046 -0.120002 25.9217 -0.120002V1.88ZM30.4541 3.1967C31.5906 3.94065 32.2017 5.08922 32.2017 6.84H34.2017C34.2017 4.53744 33.3461 2.69935 31.5494 1.5233L30.4541 3.1967ZM32.2017 6.84V24.52H34.2017V6.84H32.2017ZM32.2017 24.52C32.2017 26.2382 31.5942 27.3962 30.4435 28.1703L31.5599 29.8297C33.3426 28.6304 34.2017 26.8018 34.2017 24.52H32.2017ZM30.447 28.1679C29.1913 29.0051 27.6965 29.44 25.9217 29.44V31.44C28.0403 31.44 29.9321 30.9149 31.5564 29.8321L30.447 28.1679ZM25.9217 29.44C24.1177 29.44 22.5933 29.0037 21.3094 28.1633L20.2141 29.8367C21.8634 30.9163 23.7791 31.44 25.9217 31.44V29.44ZM21.327 28.1751C20.202 27.4043 19.6017 26.2459 19.6017 24.52H17.6017C17.6017 26.7941 18.4414 28.6224 20.1965 29.8249L21.327 28.1751ZM53.3211 1.36H54.3211V0.359999H53.3211V1.36ZM53.3211 30V31H54.3211V30H53.3211ZM48.3611 30H47.3611V31H48.3611V30ZM48.3611 17.36H49.3611V16.36H48.3611V17.36ZM42.5211 17.36V16.36H41.5211V17.36H42.5211ZM42.5211 30V31H43.5211V30H42.5211ZM37.5611 30H36.5611V31H37.5611V30ZM37.5611 1.36V0.359999H36.5611V1.36H37.5611ZM42.5211 1.36H43.5211V0.359999H42.5211V1.36ZM42.5211 13.08H41.5211V14.08H42.5211V13.08ZM48.3611 13.08V14.08H49.3611V13.08H48.3611ZM48.3611 1.36V0.359999H47.3611V1.36H48.3611ZM52.3211 1.36V30H54.3211V1.36H52.3211ZM53.3211 29H48.3611V31H53.3211V29ZM49.3611 30V17.36H47.3611V30H49.3611ZM48.3611 16.36H42.5211V18.36H48.3611V16.36ZM41.5211 17.36V30H43.5211V17.36H41.5211ZM42.5211 29H37.5611V31H42.5211V29ZM38.5611 30V1.36H36.5611V30H38.5611ZM37.5611 2.36H42.5211V0.359999H37.5611V2.36ZM41.5211 1.36V13.08H43.5211V1.36H41.5211ZM42.5211 14.08H48.3611V12.08H42.5211V14.08ZM49.3611 13.08V1.36H47.3611V13.08H49.3611ZM48.3611 2.36H53.3211V0.359999H48.3611V2.36ZM72.5852 2.08L73.5535 2.32958L73.5852 2.20679V2.08H72.5852ZM66.5052 25.36L65.538 25.1058L65.5263 25.1502L65.5188 25.1956L66.5052 25.36ZM64.3852 29.04L63.7881 28.2378L64.3852 29.04ZM58.3852 29.96H57.3852V30.6628L58.0464 30.9009L58.3852 29.96ZM58.3852 25.72L58.6792 24.7642L57.3852 24.366V25.72H58.3852ZM62.0252 24.56L62.9764 24.8685L62.9884 24.8314L62.9975 24.7934L62.0252 24.56ZM62.5052 22.56L63.4775 22.7934L63.5424 22.523L63.4584 22.2579L62.5052 22.56ZM56.1052 2.08H55.1052V2.23099L55.1497 2.37525L56.1052 2.08ZM56.1052 1.36V0.359999H55.1052V1.36H56.1052ZM60.7052 1.36L61.6682 1.09067L61.4639 0.359999H60.7052V1.36ZM64.6652 15.52L63.7021 15.7893L65.6405 15.7408L64.6652 15.52ZM66.3052 8.68L67.2763 8.91866L67.2767 8.91677L66.3052 8.68ZM68.0652 1.36V0.359999H67.2724L67.0915 1.13181L68.0652 1.36ZM72.5852 1.36H73.5852V0.359999H72.5852V1.36ZM71.6168 1.83042C70.2841 7.00133 68.2579 14.7594 65.538 25.1058L67.4723 25.6142C70.1924 15.2672 72.2196 7.50533 73.5535 2.32958L71.6168 1.83042ZM65.5188 25.1956C65.2884 26.5779 64.6991 27.5599 63.7881 28.2378L64.9822 29.8422C66.3646 28.8135 67.1886 27.3421 67.4916 25.5244L65.5188 25.1956ZM63.7881 28.2378C62.8285 28.952 61.6954 29.32 60.3452 29.32V31.32C62.0882 31.32 63.6485 30.8347 64.9822 29.8422L63.7881 28.2378ZM60.3452 29.32C59.8323 29.32 59.2935 29.2242 58.7239 29.0191L58.0464 30.9009C58.8102 31.1758 59.578 31.32 60.3452 31.32V29.32ZM59.3852 29.96V25.72H57.3852V29.96H59.3852ZM58.0911 26.6758C58.8362 26.9051 59.5284 27.04 60.1452 27.04V25.04C59.8019 25.04 59.3207 24.9616 58.6792 24.7642L58.0911 26.6758ZM60.1452 27.04C60.7964 27.04 61.4151 26.864 61.9337 26.4557C62.4434 26.0545 62.7734 25.4943 62.9764 24.8685L61.0739 24.2515C60.9569 24.6123 60.8136 24.7922 60.6966 24.8843C60.5885 24.9694 60.4273 25.04 60.1452 25.04V27.04ZM62.9975 24.7934L63.4775 22.7934L61.5328 22.3266L61.0528 24.3266L62.9975 24.7934ZM63.4584 22.2579C61.566 16.2873 59.4334 9.46305 57.0606 1.78475L55.1497 2.37525C57.5236 10.0569 59.6577 16.886 61.5519 22.8622L63.4584 22.2579ZM57.1052 2.08V1.36H55.1052V2.08H57.1052ZM56.1052 2.36H60.7052V0.359999H56.1052V2.36ZM59.7421 1.62933L63.7021 15.7893L65.6282 15.2507L61.6682 1.09067L59.7421 1.62933ZM65.6405 15.7408C65.9583 14.3371 66.5031 12.0648 67.2763 8.91866L65.3341 8.44134C64.5606 11.5885 64.012 13.8762 63.6898 15.2992L65.6405 15.7408ZM67.2767 8.91677C68.0503 5.74256 68.6378 3.29918 69.0388 1.58819L67.0915 1.13181C66.6926 2.83415 66.1067 5.27077 65.3336 8.44323L67.2767 8.91677ZM68.0652 2.36H72.5852V0.359999H68.0652V2.36ZM71.5852 1.36V2.08H73.5852V1.36H71.5852ZM84.2573 19.88V18.88H83.2573V19.88H84.2573ZM89.2173 19.88H90.2173V18.88H89.2173V19.88ZM87.0173 29L87.5721 29.8321L87.5755 29.8297L87.0173 29ZM76.7773 29L76.2121 29.8249L76.2208 29.8309L76.2297 29.8367L76.7773 29ZM76.7773 2.36L77.332 3.19206L77.3355 3.18972L76.7773 2.36ZM87.0173 2.36L86.4521 3.18493L86.4608 3.19091L86.4697 3.1967L87.0173 2.36ZM89.2173 11.52V12.52H90.2173V11.52H89.2173ZM84.2573 11.52H83.2573V12.52H84.2573V11.52ZM83.5373 5.64L82.9607 6.45697L82.9877 6.47604L83.0159 6.49328L83.5373 5.64ZM80.2173 5.6L79.6959 4.74672L79.6849 4.75343L79.6741 4.76043L80.2173 5.6ZM80.2573 25.8L79.7026 26.632L79.7191 26.643L79.7359 26.6533L80.2573 25.8ZM83.5373 25.8L84.0806 26.6396L84.092 26.632L83.5373 25.8ZM85.2573 24.4V19.88H83.2573V24.4H85.2573ZM84.2573 20.88H89.2173V18.88H84.2573V20.88ZM88.2173 19.88V24.52H90.2173V19.88H88.2173ZM88.2173 24.52C88.2173 26.2382 87.6098 27.3962 86.4592 28.1703L87.5755 29.8297C89.3582 28.6304 90.2173 26.8018 90.2173 24.52H88.2173ZM86.4626 28.1679C85.2069 29.0051 83.7121 29.44 81.9373 29.44V31.44C84.0559 31.44 85.9478 30.9149 87.572 29.8321L86.4626 28.1679ZM81.9373 29.44C80.1333 29.44 78.609 29.0037 77.325 28.1633L76.2297 29.8367C77.8791 30.9163 79.7947 31.44 81.9373 31.44V29.44ZM77.3426 28.1751C76.2177 27.4043 75.6173 26.2459 75.6173 24.52H73.6173C73.6173 26.7941 74.457 28.6224 76.2121 29.8249L77.3426 28.1751ZM75.6173 24.52V6.84H73.6173V24.52H75.6173ZM75.6173 6.84C75.6173 5.08147 76.2212 3.93264 77.332 3.19205L76.2226 1.52795C74.4535 2.70736 73.6173 4.54519 73.6173 6.84H75.6173ZM77.3355 3.18972C78.6183 2.32674 80.1388 1.88 81.9373 1.88V-0.120002C79.7892 -0.120002 77.8697 0.419926 76.2192 1.53028L77.3355 3.18972ZM81.9373 1.88C83.7064 1.88 85.1974 2.32525 86.4521 3.18493L87.5826 1.53507C85.9573 0.421417 84.0616 -0.120002 81.9373 -0.120002V1.88ZM86.4697 3.1967C87.6063 3.94065 88.2173 5.08922 88.2173 6.84H90.2173C90.2173 4.53744 89.3617 2.69935 87.565 1.5233L86.4697 3.1967ZM88.2173 6.84V11.52H90.2173V6.84H88.2173ZM89.2173 10.52H84.2573V12.52H89.2173V10.52ZM85.2573 11.52V7H83.2573V11.52H85.2573ZM85.2573 7C85.2573 6.07613 84.867 5.2806 84.0588 4.78672L83.0159 6.49328C83.1677 6.58607 83.2573 6.6972 83.2573 7H85.2573ZM84.114 4.82303C83.4743 4.37145 82.7344 4.16 81.9373 4.16V6.16C82.3669 6.16 82.6937 6.26855 82.9607 6.45697L84.114 4.82303ZM81.9373 4.16C81.1211 4.16 80.3599 4.34095 79.6959 4.74672L80.7388 6.45328C81.0348 6.27238 81.4203 6.16 81.9373 6.16V4.16ZM79.6741 4.76043C78.8797 5.27442 78.5373 6.09369 78.5373 7H80.5373C80.5373 6.62631 80.6483 6.51224 80.7606 6.43957L79.6741 4.76043ZM78.5373 7V24.4H80.5373V7H78.5373ZM78.5373 24.4C78.5373 25.3225 78.9241 26.1131 79.7026 26.632L80.812 24.9679C80.6305 24.847 80.5373 24.7041 80.5373 24.4H78.5373ZM79.7359 26.6533C80.3936 27.0552 81.1393 27.24 81.9373 27.24V25.24C81.4554 25.24 81.0811 25.1314 80.7788 24.9467L79.7359 26.6533ZM81.9373 27.24C82.7165 27.24 83.4442 27.0514 84.0806 26.6396L82.9941 24.9604C82.7238 25.1353 82.3849 25.24 81.9373 25.24V27.24ZM84.092 26.632C84.8705 26.113 85.2573 25.3225 85.2573 24.4H83.2573C83.2573 24.7041 83.1641 24.847 82.9826 24.968L84.092 26.632ZM113.807 30V31H114.807V30H113.807ZM99.807 30H98.807V31H99.807V30ZM99.967 21.52L100.958 21.6566L100.958 21.6522L99.967 21.52ZM100.567 19.36L99.6726 18.9128L99.665 18.9279L99.658 18.9433L100.567 19.36ZM101.447 17.8L100.623 17.2335L100.619 17.2394L100.615 17.2453L101.447 17.8ZM102.767 16.48L103.378 17.2713L103.383 17.2675L102.767 16.48ZM104.327 15.4L104.817 16.2716L104.837 16.2602L104.857 16.248L104.327 15.4ZM106.287 14.24L105.821 13.3551L105.805 13.3639L105.788 13.3734L106.287 14.24ZM108.247 12.52L107.353 12.0728L107.349 12.0806L107.345 12.0885L108.247 12.52ZM108.127 5.6L107.509 6.38632L107.522 6.39658L107.536 6.40641L108.127 5.6ZM105.447 5.6L104.856 4.7936L104.842 4.80342L104.829 4.81368L105.447 5.6ZM104.887 10.04V11.04H105.887V10.04H104.887ZM99.967 10.04H98.967V11.04H99.967V10.04ZM102.007 2.36L102.584 3.17697L102.587 3.17479L102.007 2.36ZM111.607 2.36L111.02 3.16949L111.03 3.17697L111.607 2.36ZM112.727 14.56L113.639 14.9704V14.9704L112.727 14.56ZM111.567 16.16L112.274 16.8671L111.567 16.16ZM110.247 17.36L110.816 18.1822L110.837 18.1679L110.857 18.1526L110.247 17.36ZM108.567 18.44L109.06 19.3098L109.078 19.3001L109.094 19.2896L108.567 18.44ZM105.287 20.8L104.473 20.2187L104.468 20.2265L105.287 20.8ZM104.727 25.8H103.727V26.8H104.727V25.8ZM113.807 25.8H114.807V24.8H113.807V25.8ZM113.807 29H99.807V31H113.807V29ZM100.807 30V24.24H98.807V30H100.807ZM100.807 24.24C100.807 23.2317 100.859 22.3727 100.958 21.6566L98.9764 21.3834C98.8618 22.214 98.807 23.1683 98.807 24.24H100.807ZM100.958 21.6522C101.054 20.9364 101.23 20.3143 101.476 19.7767L99.658 18.9433C99.3177 19.6857 99.0937 20.5036 98.9758 21.3878L100.958 21.6522ZM101.461 19.8072C101.771 19.1883 102.044 18.7079 102.279 18.3547L100.615 17.2453C100.317 17.692 100.003 18.2517 99.6726 18.9128L101.461 19.8072ZM102.271 18.3665C102.486 18.0535 102.842 17.6862 103.378 17.2713L102.156 15.6887C101.519 16.1805 100.994 16.6931 100.623 17.2335L102.271 18.3665ZM103.383 17.2675C103.977 16.8028 104.453 16.4767 104.817 16.2716L103.837 14.5284C103.348 14.8033 102.784 15.1972 102.151 15.6925L103.383 17.2675ZM104.857 16.248C105.268 15.9913 105.908 15.612 106.786 15.1066L105.788 13.3734C104.906 13.8813 104.24 14.2754 103.797 14.552L104.857 16.248ZM106.753 15.1249C107.839 14.5534 108.718 13.8521 109.149 12.9515L107.345 12.0885C107.189 12.4146 106.762 12.8599 105.821 13.3551L106.753 15.1249ZM109.141 12.9672C109.573 12.1047 109.727 10.8351 109.727 9.32H107.727C107.727 10.7915 107.561 11.6553 107.353 12.0728L109.141 12.9672ZM109.727 9.32V6.96H107.727V9.32H109.727ZM109.727 6.96C109.727 6.11233 109.436 5.3201 108.718 4.79359L107.536 6.40641C107.618 6.46657 107.727 6.58101 107.727 6.96H109.727ZM108.745 4.81368C108.193 4.38027 107.548 4.16 106.847 4.16V6.16C107.106 6.16 107.314 6.23306 107.509 6.38632L108.745 4.81368ZM106.847 4.16C106.118 4.16 105.44 4.36482 104.856 4.7936L106.038 6.4064C106.254 6.24851 106.509 6.16 106.847 6.16V4.16ZM104.829 4.81368C104.147 5.34957 103.887 6.1372 103.887 6.96H105.887C105.887 6.55613 106 6.43709 106.065 6.38632L104.829 4.81368ZM103.887 6.96V10.04H105.887V6.96H103.887ZM104.887 9.04H99.967V11.04H104.887V9.04ZM100.967 10.04V6.84H98.967V10.04H100.967ZM100.967 6.84C100.967 5.05832 101.548 3.9078 102.584 3.17697L101.43 1.54303C99.7457 2.7322 98.967 4.56835 98.967 6.84H100.967ZM102.587 3.17479C103.79 2.31851 105.197 1.88 106.847 1.88V-0.120002C104.817 -0.120002 102.997 0.428154 101.427 1.54521L102.587 3.17479ZM106.847 1.88C108.467 1.88 109.844 2.31661 111.02 3.16942L112.194 1.55058C110.65 0.430053 108.854 -0.120002 106.847 -0.120002V1.88ZM111.03 3.17697C112.066 3.9078 112.647 5.05832 112.647 6.84H114.647C114.647 4.56835 113.868 2.7322 112.184 1.54303L111.03 3.17697ZM112.647 6.84V9.32H114.647V6.84H112.647ZM112.647 9.32C112.647 10.4143 112.558 11.3715 112.388 12.1983L114.346 12.6017C114.55 11.6151 114.647 10.5191 114.647 9.32H112.647ZM112.388 12.1983C112.208 13.0696 112.013 13.7102 111.815 14.1496L113.639 14.9704C113.921 14.3431 114.153 13.5438 114.346 12.6017L112.388 12.1983ZM111.815 14.1496C111.637 14.5456 111.331 14.9816 110.86 15.4529L112.274 16.8671C112.87 16.2717 113.337 15.641 113.639 14.9704L111.815 14.1496ZM110.86 15.4529C110.339 15.9741 109.934 16.3393 109.637 16.5674L110.857 18.1526C111.254 17.8474 111.729 17.4125 112.274 16.8671L110.86 15.4529ZM109.678 16.5378C109.353 16.7626 108.811 17.1115 108.04 17.5904L109.094 19.2896C109.87 18.8085 110.448 18.4374 110.816 18.1822L109.678 16.5378ZM108.074 17.5702C107.163 18.0864 106.41 18.5561 105.823 18.9783C105.256 19.3865 104.772 19.8008 104.473 20.2188L106.101 21.3812C106.202 21.2392 106.465 20.9802 106.991 20.6017C107.498 20.2372 108.184 19.8069 109.06 19.3098L108.074 17.5702ZM104.468 20.2265C104.152 20.6783 103.981 21.2765 103.88 21.8993C103.775 22.5454 103.727 23.3306 103.727 24.24H105.727C105.727 23.3894 105.773 22.7213 105.854 22.2207C105.939 21.6969 106.049 21.455 106.106 21.3735L104.468 20.2265ZM103.727 24.24V25.8H105.727V24.24H103.727ZM104.727 26.8H113.807V24.8H104.727V26.8ZM112.807 25.8V30H114.807V25.8H112.807ZM125.394 5.52L125.934 4.67882L125.394 5.52ZM122.674 25.88L122.092 26.6937L122.125 26.7169L122.159 26.7375L122.674 25.88ZM125.354 25.88L125.894 26.7212L125.901 26.7167L125.908 26.712L125.354 25.88ZM119.234 2.28L119.788 3.11206L119.792 3.10959L119.234 2.28ZM128.834 2.24L128.279 3.07205L128.834 2.24ZM128.834 29.08L128.279 28.248L128.834 29.08ZM119.234 29.08L118.679 29.9121L118.686 29.917L119.234 29.08ZM126.954 24.72V6.68H124.954V24.72H126.954ZM126.954 6.68C126.954 5.88575 126.655 5.14197 125.934 4.67882L124.853 6.36118C124.89 6.38499 124.903 6.40325 124.913 6.42475C124.927 6.45372 124.954 6.52829 124.954 6.68H126.954ZM125.934 4.67882C125.378 4.32102 124.744 4.16 124.074 4.16V6.16C124.416 6.16 124.663 6.23898 124.853 6.36118L125.934 4.67882ZM124.074 4.16C123.319 4.16 122.569 4.30161 121.991 4.74978C121.365 5.23538 121.114 5.94164 121.114 6.68H123.114C123.114 6.40502 123.189 6.35128 123.216 6.33022C123.292 6.27172 123.522 6.16 124.074 6.16V4.16ZM121.114 6.68V24.72H123.114V6.68H121.114ZM121.114 24.72C121.114 25.5104 121.426 26.2177 122.092 26.6937L123.255 25.0663C123.175 25.009 123.114 24.9429 123.114 24.72H121.114ZM122.159 26.7375C122.736 27.0835 123.385 27.24 124.074 27.24V25.24C123.695 25.24 123.411 25.1565 123.188 25.0225L122.159 26.7375ZM124.074 27.24C124.729 27.24 125.347 27.0733 125.894 26.7212L124.813 25.0388C124.614 25.1667 124.378 25.24 124.074 25.24V27.24ZM125.908 26.712C126.604 26.2483 126.954 25.5395 126.954 24.72H124.954C124.954 24.9138 124.903 24.9784 124.799 25.0479L125.908 26.712ZM118.194 24.84V6.52H116.194V24.84H118.194ZM118.194 6.52C118.194 4.8668 118.758 3.79867 119.788 3.11205L118.679 1.44795C116.989 2.57466 116.194 4.3332 116.194 6.52H118.194ZM119.792 3.10959C120.997 2.29846 122.412 1.88 124.074 1.88V-0.120002C122.056 -0.120002 120.243 0.394875 118.675 1.45041L119.792 3.10959ZM124.074 1.88C125.712 1.88 127.101 2.28671 128.279 3.07205L129.388 1.40795C127.846 0.379952 126.062 -0.120002 124.074 -0.120002V1.88ZM128.279 3.07205C129.305 3.75586 129.874 4.83415 129.874 6.52H131.874C131.874 4.31252 131.083 2.53747 129.388 1.40795L128.279 3.07205ZM129.874 6.52V24.84H131.874V6.52H129.874ZM129.874 24.84C129.874 26.4932 129.309 27.5613 128.279 28.248L129.388 29.912C131.078 28.7853 131.874 27.0268 131.874 24.84H129.874ZM128.279 28.248C127.101 29.0333 125.712 29.44 124.074 29.44V31.44C126.062 31.44 127.846 30.94 129.388 29.912L128.279 28.248ZM124.074 29.44C122.406 29.44 120.987 29.0317 119.781 28.243L118.686 29.917C120.253 30.9416 122.061 31.44 124.074 31.44V29.44ZM119.788 28.248C118.758 27.5613 118.194 26.4932 118.194 24.84H116.194C116.194 27.0268 116.989 28.7853 118.679 29.912L119.788 28.248ZM142.62 5.52L143.161 4.67882L142.62 5.52ZM139.9 25.88L139.319 26.6937L139.351 26.7169L139.386 26.7375L139.9 25.88ZM142.58 25.88L143.121 26.7212L143.128 26.7167L143.135 26.712L142.58 25.88ZM136.46 2.28L137.015 3.11206L137.019 3.10959L136.46 2.28ZM146.06 2.24L145.505 3.07205L146.06 2.24ZM146.06 29.08L145.505 28.248L146.06 29.08ZM136.46 29.08L135.905 29.9121L135.913 29.917L136.46 29.08ZM144.18 24.72V6.68H142.18V24.72H144.18ZM144.18 6.68C144.18 5.88575 143.881 5.14197 143.161 4.67882L142.079 6.36118C142.116 6.38499 142.129 6.40325 142.14 6.42475C142.154 6.45372 142.18 6.52829 142.18 6.68H144.18ZM143.161 4.67882C142.604 4.32102 141.971 4.16 141.3 4.16V6.16C141.643 6.16 141.889 6.23898 142.079 6.36118L143.161 4.67882ZM141.3 4.16C140.545 4.16 139.795 4.30161 139.217 4.74978C138.591 5.23538 138.34 5.94164 138.34 6.68H140.34C140.34 6.40502 140.416 6.35128 140.443 6.33022C140.518 6.27172 140.748 6.16 141.3 6.16V4.16ZM138.34 6.68V24.72H140.34V6.68H138.34ZM138.34 24.72C138.34 25.5104 138.652 26.2177 139.319 26.6937L140.481 25.0663C140.401 25.009 140.34 24.9429 140.34 24.72H138.34ZM139.386 26.7375C139.962 27.0835 140.612 27.24 141.3 27.24V25.24C140.922 25.24 140.638 25.1565 140.415 25.0225L139.386 26.7375ZM141.3 27.24C141.956 27.24 142.573 27.0733 143.121 26.7212L142.039 25.0388C141.841 25.1667 141.605 25.24 141.3 25.24V27.24ZM143.135 26.712C143.831 26.2483 144.18 25.5395 144.18 24.72H142.18C142.18 24.9138 142.13 24.9784 142.025 25.0479L143.135 26.712ZM135.42 24.84V6.52H133.42V24.84H135.42ZM135.42 6.52C135.42 4.8668 135.985 3.79867 137.015 3.11205L135.905 1.44795C134.215 2.57466 133.42 4.3332 133.42 6.52H135.42ZM137.019 3.10959C138.224 2.29846 139.638 1.88 141.3 1.88V-0.120002C139.282 -0.120002 137.47 0.394875 135.902 1.45041L137.019 3.10959ZM141.3 1.88C142.939 1.88 144.327 2.28671 145.505 3.07205L146.615 1.40795C145.073 0.379952 143.288 -0.120002 141.3 -0.120002V1.88ZM145.505 3.07205C146.531 3.75586 147.1 4.83415 147.1 6.52H149.1C149.1 4.31252 148.309 2.53747 146.615 1.40795L145.505 3.07205ZM147.1 6.52V24.84H149.1V6.52H147.1ZM147.1 24.84C147.1 26.4932 146.535 27.5613 145.505 28.248L146.615 29.912C148.305 28.7853 149.1 27.0268 149.1 24.84H147.1ZM145.505 28.248C144.327 29.0333 142.939 29.44 141.3 29.44V31.44C143.288 31.44 145.073 30.94 146.615 29.912L145.505 28.248ZM141.3 29.44C139.632 29.44 138.214 29.0317 137.007 28.243L135.913 29.917C137.48 30.9416 139.288 31.44 141.3 31.44V29.44ZM137.015 28.248C135.985 27.5613 135.42 26.4932 135.42 24.84H133.42C133.42 27.0268 134.215 28.7853 135.905 29.912L137.015 28.248ZM167.269 5.52L167.809 4.67882L167.269 5.52ZM164.549 25.88L163.967 26.6937L164 26.7169L164.034 26.7375L164.549 25.88ZM167.229 25.88L167.769 26.7212L167.776 26.7167L167.783 26.712L167.229 25.88ZM161.109 2.28L161.663 3.11206L161.667 3.10959L161.109 2.28ZM170.709 2.24L170.154 3.07205L170.709 2.24ZM170.709 29.08L170.154 28.248L170.709 29.08ZM161.109 29.08L160.554 29.9121L160.561 29.917L161.109 29.08ZM168.829 24.72V6.68H166.829V24.72H168.829ZM168.829 6.68C168.829 5.88575 168.53 5.14197 167.809 4.67882L166.728 6.36118C166.765 6.38499 166.778 6.40325 166.788 6.42475C166.802 6.45372 166.829 6.52829 166.829 6.68H168.829ZM167.809 4.67882C167.253 4.32102 166.619 4.16 165.949 4.16V6.16C166.291 6.16 166.538 6.23898 166.728 6.36118L167.809 4.67882ZM165.949 4.16C165.194 4.16 164.444 4.30161 163.866 4.74978C163.24 5.23538 162.989 5.94164 162.989 6.68H164.989C164.989 6.40502 165.064 6.35128 165.091 6.33022C165.167 6.27172 165.397 6.16 165.949 6.16V4.16ZM162.989 6.68V24.72H164.989V6.68H162.989ZM162.989 24.72C162.989 25.5104 163.301 26.2177 163.967 26.6937L165.13 25.0663C165.05 25.009 164.989 24.9429 164.989 24.72H162.989ZM164.034 26.7375C164.611 27.0835 165.26 27.24 165.949 27.24V25.24C165.57 25.24 165.286 25.1565 165.063 25.0225L164.034 26.7375ZM165.949 27.24C166.604 27.24 167.222 27.0733 167.769 26.7212L166.688 25.0388C166.489 25.1667 166.253 25.24 165.949 25.24V27.24ZM167.783 26.712C168.479 26.2483 168.829 25.5395 168.829 24.72H166.829C166.829 24.9138 166.778 24.9784 166.674 25.0479L167.783 26.712ZM160.069 24.84V6.52H158.069V24.84H160.069ZM160.069 6.52C160.069 4.8668 160.633 3.79867 161.663 3.11205L160.554 1.44795C158.864 2.57466 158.069 4.3332 158.069 6.52H160.069ZM161.667 3.10959C162.872 2.29846 164.287 1.88 165.949 1.88V-0.120002C163.931 -0.120002 162.118 0.394875 160.55 1.45041L161.667 3.10959ZM165.949 1.88C167.587 1.88 168.976 2.28671 170.154 3.07205L171.263 1.40795C169.721 0.379952 167.937 -0.120002 165.949 -0.120002V1.88ZM170.154 3.07205C171.18 3.75586 171.749 4.83415 171.749 6.52H173.749C173.749 4.31252 172.958 2.53747 171.263 1.40795L170.154 3.07205ZM171.749 6.52V24.84H173.749V6.52H171.749ZM171.749 24.84C171.749 26.4932 171.184 27.5613 170.154 28.248L171.263 29.912C172.953 28.7853 173.749 27.0268 173.749 24.84H171.749ZM170.154 28.248C168.976 29.0333 167.587 29.44 165.949 29.44V31.44C167.937 31.44 169.721 30.94 171.263 29.912L170.154 28.248ZM165.949 29.44C164.281 29.44 162.862 29.0317 161.656 28.243L160.561 29.917C162.128 30.9416 163.936 31.44 165.949 31.44V29.44ZM161.663 28.248C160.633 27.5613 160.069 26.4932 160.069 24.84H158.069C158.069 27.0268 158.864 28.7853 160.554 29.912L161.663 28.248ZM184.495 5.52L185.036 4.67882L184.495 5.52ZM181.775 25.88L181.194 26.6937L181.226 26.7169L181.261 26.7375L181.775 25.88ZM184.455 25.88L184.996 26.7212L185.003 26.7167L185.01 26.712L184.455 25.88ZM178.335 2.28L178.89 3.11206L178.894 3.10959L178.335 2.28ZM187.935 2.24L187.38 3.07205L187.935 2.24ZM187.935 29.08L187.38 28.248L187.935 29.08ZM178.335 29.08L177.78 29.9121L177.788 29.917L178.335 29.08ZM186.055 24.72V6.68H184.055V24.72H186.055ZM186.055 6.68C186.055 5.88575 185.756 5.14197 185.036 4.67882L183.954 6.36118C183.991 6.38499 184.004 6.40325 184.015 6.42475C184.029 6.45372 184.055 6.52829 184.055 6.68H186.055ZM185.036 4.67882C184.479 4.32102 183.846 4.16 183.175 4.16V6.16C183.518 6.16 183.764 6.23898 183.954 6.36118L185.036 4.67882ZM183.175 4.16C182.42 4.16 181.67 4.30161 181.092 4.74978C180.466 5.23538 180.215 5.94164 180.215 6.68H182.215C182.215 6.40502 182.291 6.35128 182.318 6.33022C182.393 6.27172 182.623 6.16 183.175 6.16V4.16ZM180.215 6.68V24.72H182.215V6.68H180.215ZM180.215 24.72C180.215 25.5104 180.527 26.2177 181.194 26.6937L182.356 25.0663C182.276 25.009 182.215 24.9429 182.215 24.72H180.215ZM181.261 26.7375C181.837 27.0835 182.487 27.24 183.175 27.24V25.24C182.797 25.24 182.513 25.1565 182.29 25.0225L181.261 26.7375ZM183.175 27.24C183.831 27.24 184.448 27.0733 184.996 26.7212L183.914 25.0388C183.716 25.1667 183.48 25.24 183.175 25.24V27.24ZM185.01 26.712C185.706 26.2483 186.055 25.5395 186.055 24.72H184.055C184.055 24.9138 184.005 24.9784 183.9 25.0479L185.01 26.712ZM177.295 24.84V6.52H175.295V24.84H177.295ZM177.295 6.52C177.295 4.8668 177.86 3.79867 178.89 3.11205L177.78 1.44795C176.09 2.57466 175.295 4.3332 175.295 6.52H177.295ZM178.894 3.10959C180.099 2.29846 181.513 1.88 183.175 1.88V-0.120002C181.157 -0.120002 179.345 0.394875 177.777 1.45041L178.894 3.10959ZM183.175 1.88C184.814 1.88 186.202 2.28671 187.38 3.07205L188.49 1.40795C186.948 0.379952 185.163 -0.120002 183.175 -0.120002V1.88ZM187.38 3.07205C188.406 3.75586 188.975 4.83415 188.975 6.52H190.975C190.975 4.31252 190.184 2.53747 188.49 1.40795L187.38 3.07205ZM188.975 6.52V24.84H190.975V6.52H188.975ZM188.975 24.84C188.975 26.4932 188.41 27.5613 187.38 28.248L188.49 29.912C190.18 28.7853 190.975 27.0268 190.975 24.84H188.975ZM187.38 28.248C186.202 29.0333 184.814 29.44 183.175 29.44V31.44C185.163 31.44 186.948 30.94 188.49 29.912L187.38 28.248ZM183.175 29.44C181.507 29.44 180.089 29.0317 178.882 28.243L177.788 29.917C179.355 30.9416 181.163 31.44 183.175 31.44V29.44ZM178.89 28.248C177.86 27.5613 177.295 26.4932 177.295 24.84H175.295C175.295 27.0268 176.09 28.7853 177.78 29.912L178.89 28.248ZM201.722 5.52L202.262 4.67882L201.722 5.52ZM199.002 25.88L198.42 26.6937L198.453 26.7169L198.487 26.7375L199.002 25.88ZM201.682 25.88L202.222 26.7212L202.229 26.7167L202.236 26.712L201.682 25.88ZM195.562 2.28L196.116 3.11206L196.12 3.10959L195.562 2.28ZM205.162 2.24L204.607 3.07205L205.162 2.24ZM205.162 29.08L204.607 28.248L205.162 29.08ZM195.562 29.08L195.007 29.9121L195.014 29.917L195.562 29.08ZM203.282 24.72V6.68H201.282V24.72H203.282ZM203.282 6.68C203.282 5.88575 202.983 5.14197 202.262 4.67882L201.181 6.36118C201.218 6.38499 201.231 6.40325 201.241 6.42475C201.255 6.45372 201.282 6.52829 201.282 6.68H203.282ZM202.262 4.67882C201.706 4.32102 201.072 4.16 200.402 4.16V6.16C200.745 6.16 200.991 6.23898 201.181 6.36118L202.262 4.67882ZM200.402 4.16C199.647 4.16 198.897 4.30161 198.319 4.74978C197.693 5.23538 197.442 5.94164 197.442 6.68H199.442C199.442 6.40502 199.517 6.35128 199.545 6.33022C199.62 6.27172 199.85 6.16 200.402 6.16V4.16ZM197.442 6.68V24.72H199.442V6.68H197.442ZM197.442 24.72C197.442 25.5104 197.754 26.2177 198.42 26.6937L199.583 25.0663C199.503 25.009 199.442 24.9429 199.442 24.72H197.442ZM198.487 26.7375C199.064 27.0835 199.714 27.24 200.402 27.24V25.24C200.023 25.24 199.74 25.1565 199.516 25.0225L198.487 26.7375ZM200.402 27.24C201.057 27.24 201.675 27.0733 202.222 26.7212L201.141 25.0388C200.942 25.1667 200.706 25.24 200.402 25.24V27.24ZM202.236 26.712C202.932 26.2483 203.282 25.5395 203.282 24.72H201.282C201.282 24.9138 201.231 24.9784 201.127 25.0479L202.236 26.712ZM194.522 24.84V6.52H192.522V24.84H194.522ZM194.522 6.52C194.522 4.8668 195.086 3.79867 196.116 3.11205L195.007 1.44795C193.317 2.57466 192.522 4.3332 192.522 6.52H194.522ZM196.12 3.10959C197.325 2.29846 198.74 1.88 200.402 1.88V-0.120002C198.384 -0.120002 196.572 0.394875 195.003 1.45041L196.12 3.10959ZM200.402 1.88C202.04 1.88 203.429 2.28671 204.607 3.07205L205.716 1.40795C204.174 0.379952 202.39 -0.120002 200.402 -0.120002V1.88ZM204.607 3.07205C205.633 3.75586 206.202 4.83415 206.202 6.52H208.202C208.202 4.31252 207.411 2.53747 205.716 1.40795L204.607 3.07205ZM206.202 6.52V24.84H208.202V6.52H206.202ZM206.202 24.84C206.202 26.4932 205.637 27.5613 204.607 28.248L205.716 29.912C207.406 28.7853 208.202 27.0268 208.202 24.84H206.202ZM204.607 28.248C203.429 29.0333 202.04 29.44 200.402 29.44V31.44C202.39 31.44 204.174 30.94 205.716 29.912L204.607 28.248ZM200.402 29.44C198.734 29.44 197.315 29.0317 196.109 28.243L195.014 29.917C196.582 30.9416 198.39 31.44 200.402 31.44V29.44ZM196.116 28.248C195.086 27.5613 194.522 26.4932 194.522 24.84H192.522C192.522 27.0268 193.317 28.7853 195.007 29.912L196.116 28.248Z" fill="white"/>
</svg>
