<svg width="370" height="75" viewBox="0 0 370 75" fill="none" xmlns="http://www.w3.org/2000/svg">
<path opacity="0.7" d="M12.8125 62.3H11.8125V63.3H12.8125V62.3ZM24.0125 60.6L23.3054 59.8929L23.2947 59.9036L23.2843 59.9146L24.0125 60.6ZM24.0125 43L23.2843 43.6854L23.2947 43.6964L23.3054 43.7071L24.0125 43ZM12.8125 41.3V40.3H11.8125V41.3H12.8125ZM33.0125 68.8L33.6557 69.5658L33.6645 69.5582L33.0125 68.8ZM0.412502 73H-0.587498V74H0.412502V73ZM0.412502 1.4V0.399998H-0.587498V1.4H0.412502ZM33.4125 1.4H34.4125V0.399998H33.4125V1.4ZM33.4125 12.1V13.1H34.4125V12.1H33.4125ZM12.8125 12.1V11.1H11.8125V12.1H12.8125ZM12.8125 30.6H11.8125V31.6H12.8125V30.6ZM33.0125 34.8L33.6557 34.0343V34.0343L33.0125 34.8ZM12.8125 63.3H19.2125V61.3H12.8125V63.3ZM19.2125 63.3C21.516 63.3 23.4232 62.6852 24.7407 61.2854L23.2843 59.9146C22.4685 60.7814 21.1757 61.3 19.2125 61.3V63.3ZM24.7196 61.3071C26.0401 59.9866 26.7125 58.3657 26.7125 56.5H24.7125C24.7125 57.8343 24.2516 58.9467 23.3054 59.8929L24.7196 61.3071ZM26.7125 56.5V47H24.7125V56.5H26.7125ZM26.7125 47C26.7125 45.1884 26.031 43.6043 24.7196 42.2929L23.3054 43.7071C24.2607 44.6624 24.7125 45.745 24.7125 47H26.7125ZM24.7407 42.3146C23.4232 40.9148 21.516 40.3 19.2125 40.3V42.3C21.1757 42.3 22.4685 42.8186 23.2843 43.6854L24.7407 42.3146ZM19.2125 40.3H12.8125V42.3H19.2125V40.3ZM11.8125 41.3V62.3H13.8125V41.3H11.8125ZM37.0125 47V56.5H39.0125V47H37.0125ZM37.0125 56.5C37.0125 61.6099 35.4262 65.4053 32.3605 68.0418L33.6645 69.5582C37.2655 66.4613 39.0125 62.0568 39.0125 56.5H37.0125ZM32.3693 68.0343C29.2703 70.6374 24.926 72 19.2125 72V74C25.2324 74 30.088 72.5626 33.6557 69.5657L32.3693 68.0343ZM19.2125 72H0.412502V74H19.2125V72ZM1.4125 73V1.4H-0.587498V73H1.4125ZM0.412502 2.4H33.4125V0.399998H0.412502V2.4ZM32.4125 1.4V12.1H34.4125V1.4H32.4125ZM33.4125 11.1H12.8125V13.1H33.4125V11.1ZM11.8125 12.1V30.6H13.8125V12.1H11.8125ZM12.8125 31.6H19.2125V29.6H12.8125V31.6ZM19.2125 31.6C24.926 31.6 29.2703 32.9626 32.3693 35.5657L33.6557 34.0343C30.088 31.0374 25.2324 29.6 19.2125 29.6V31.6ZM32.3693 35.5657C35.4261 38.1334 37.0125 41.8893 37.0125 47H39.0125C39.0125 41.444 37.2656 37.0666 33.6557 34.0343L32.3693 35.5657ZM68.0875 11.9L67.5108 12.717L67.5378 12.736L67.5661 12.7533L68.0875 11.9ZM59.8875 11.9L60.409 12.7533L60.4258 12.743L60.4422 12.732L59.8875 11.9ZM59.8875 62.7L59.3328 63.5321L59.3492 63.543L59.3661 63.5533L59.8875 62.7ZM68.0875 62.7L68.6308 63.5396L68.6422 63.5321L68.0875 62.7ZM51.1875 3.9L51.7422 4.73205L51.7457 4.72972L51.1875 3.9ZM76.7875 3.9L76.2223 4.72493L76.231 4.73091L76.2398 4.7367L76.7875 3.9ZM76.7875 70.5L77.3422 71.3321L77.3457 71.3297L76.7875 70.5ZM51.1875 70.5L50.6223 71.3249L50.631 71.3309L50.6398 71.3367L51.1875 70.5ZM70.8875 59.1V15.4H68.8875V59.1H70.8875ZM70.8875 15.4C70.8875 13.5086 70.1518 11.9896 68.609 11.0467L67.5661 12.7533C68.4232 13.2771 68.8875 14.0914 68.8875 15.4H70.8875ZM68.6642 11.083C67.3444 10.1515 65.8046 9.7 64.0875 9.7V11.7C65.4371 11.7 66.5639 12.0485 67.5108 12.717L68.6642 11.083ZM64.0875 9.7C62.3125 9.7 60.7148 10.1466 59.3328 11.0679L60.4422 12.732C61.4602 12.0534 62.6625 11.7 64.0875 11.7V9.7ZM59.3661 11.0467C57.8232 11.9896 57.0875 13.5086 57.0875 15.4H59.0875C59.0875 14.0914 59.5518 13.2771 60.409 12.7533L59.3661 11.0467ZM57.0875 15.4V59.1H59.0875V15.4H57.0875ZM57.0875 59.1C57.0875 60.9913 57.8206 62.5239 59.3328 63.5321L60.4422 61.868C59.5544 61.2761 59.0875 60.4087 59.0875 59.1H57.0875ZM59.3661 63.5533C60.7438 64.3952 62.3294 64.8 64.0875 64.8V62.8C62.6456 62.8 61.4312 62.4714 60.409 61.8467L59.3661 63.5533ZM64.0875 64.8C65.7867 64.8 67.3144 64.3914 68.6308 63.5396L67.5443 61.8604C66.594 62.4753 65.455 62.8 64.0875 62.8V64.8ZM68.6422 63.5321C70.1544 62.5239 70.8875 60.9913 70.8875 59.1H68.8875C68.8875 60.4087 68.4206 61.2761 67.5328 61.868L68.6422 63.5321ZM46.7875 59.3V15.1H44.7875V59.3H46.7875ZM46.7875 15.1C46.7875 10.3015 48.4713 6.91264 51.7422 4.73205L50.6328 3.06795C46.7037 5.68736 44.7875 9.76519 44.7875 15.1H46.7875ZM51.7457 4.72972C55.2285 2.38673 59.329 1.2 64.0875 1.2V-0.800005C58.9793 -0.800005 54.4798 0.479923 50.6293 3.07027L51.7457 4.72972ZM64.0875 1.2C68.7766 1.2 72.8076 2.38524 76.2223 4.72493L77.3527 3.07506C73.5674 0.481414 69.1317 -0.800005 64.0875 -0.800005V1.2ZM76.2398 4.7367C79.5764 6.92064 81.2875 10.3092 81.2875 15.1H83.2875C83.2875 9.75744 81.3319 5.67935 77.3352 3.06329L76.2398 4.7367ZM81.2875 15.1V59.3H83.2875V15.1H81.2875ZM81.2875 59.3C81.2875 64.0182 79.5799 67.4162 76.2293 69.6703L77.3457 71.3297C81.3284 68.6504 83.2875 64.5818 83.2875 59.3H81.2875ZM76.2328 69.668C72.8171 71.9451 68.7822 73.1 64.0875 73.1V75.1C69.1261 75.1 73.5579 73.8549 77.3422 71.332L76.2328 69.668ZM64.0875 73.1C59.3235 73.1 55.2191 71.9437 51.7352 69.6633L50.6398 71.3367C54.4892 73.8563 58.9849 75.1 64.0875 75.1V73.1ZM51.7527 69.6751C48.4678 67.4243 46.7875 64.0259 46.7875 59.3H44.7875C44.7875 64.5741 46.7072 68.6424 50.6223 71.3249L51.7527 69.6751ZM132.586 1.4H133.586V0.399998H132.586V1.4ZM132.586 73V74H133.586V73H132.586ZM120.186 73H119.186V74H120.186V73ZM120.186 41.4H121.186V40.4H120.186V41.4ZM105.586 41.4V40.4H104.586V41.4H105.586ZM105.586 73V74H106.586V73H105.586ZM93.1859 73H92.1859V74H93.1859V73ZM93.1859 1.4V0.399998H92.1859V1.4H93.1859ZM105.586 1.4H106.586V0.399998H105.586V1.4ZM105.586 30.7H104.586V31.7H105.586V30.7ZM120.186 30.7V31.7H121.186V30.7H120.186ZM120.186 1.4V0.399998H119.186V1.4H120.186ZM131.586 1.4V73H133.586V1.4H131.586ZM132.586 72H120.186V74H132.586V72ZM121.186 73V41.4H119.186V73H121.186ZM120.186 40.4H105.586V42.4H120.186V40.4ZM104.586 41.4V73H106.586V41.4H104.586ZM105.586 72H93.1859V74H105.586V72ZM94.1859 73V1.4H92.1859V73H94.1859ZM93.1859 2.4H105.586V0.399998H93.1859V2.4ZM104.586 1.4V30.7H106.586V1.4H104.586ZM105.586 31.7H120.186V29.7H105.586V31.7ZM121.186 30.7V1.4H119.186V30.7H121.186ZM120.186 2.4H132.586V0.399998H120.186V2.4ZM180.746 3.2L181.714 3.44958L181.746 3.32679V3.2H180.746ZM165.546 61.4L164.579 61.1458L164.567 61.1902L164.56 61.2356L165.546 61.4ZM160.246 70.6L159.649 69.7978L160.246 70.6ZM145.246 72.9H144.246V73.6028L144.907 73.8409L145.246 72.9ZM145.246 62.3L145.54 61.3442L144.246 60.946V62.3H145.246ZM154.346 59.4L155.297 59.7085L155.309 59.6713L155.318 59.6334L154.346 59.4ZM155.546 54.4L156.518 54.6334L156.583 54.363L156.499 54.0978L155.546 54.4ZM139.546 3.2H138.546V3.35099L138.591 3.49525L139.546 3.2ZM139.546 1.4V0.399998H138.546V1.4H139.546ZM151.046 1.4L152.009 1.13067L151.805 0.399998H151.046V1.4ZM160.946 36.8L159.983 37.0693L161.921 37.0208L160.946 36.8ZM165.046 19.7L166.017 19.9387L166.018 19.9368L165.046 19.7ZM169.446 1.4V0.399998H168.653L168.472 1.17181L169.446 1.4ZM180.746 1.4H181.746V0.399998H180.746V1.4ZM179.778 2.95042C176.445 15.8813 171.379 35.2794 164.579 61.1458L166.513 61.6543C173.313 35.7872 178.38 16.3853 181.714 3.44958L179.778 2.95042ZM164.56 61.2356C163.929 65.0179 162.28 67.8399 159.649 69.7978L160.843 71.4022C163.946 69.0935 165.83 65.7821 166.532 61.5644L164.56 61.2356ZM159.649 69.7978C156.969 71.792 153.816 72.8 150.146 72.8V74.8C154.209 74.8 157.789 73.6747 160.843 71.4022L159.649 69.7978ZM150.146 72.8C148.673 72.8 147.154 72.5242 145.585 71.9591L144.907 73.8409C146.671 74.4758 148.419 74.8 150.146 74.8V72.8ZM146.246 72.9V62.3H144.246V72.9H146.246ZM144.952 63.2558C146.737 63.8051 148.309 64.1 149.646 64.1V62.1C148.583 62.1 147.222 61.8616 145.54 61.3442L144.952 63.2558ZM149.646 64.1C150.997 64.1 152.201 63.739 153.19 62.9607C154.169 62.1895 154.854 61.0743 155.297 59.7085L153.395 59.0915C153.038 60.1923 152.54 60.9272 151.953 61.3893C151.374 61.8444 150.628 62.1 149.646 62.1V64.1ZM155.318 59.6334L156.518 54.6334L154.574 54.1666L153.374 59.1666L155.318 59.6334ZM156.499 54.0978C151.767 39.1673 146.434 22.1031 140.502 2.90475L138.591 3.49525C144.525 22.6969 149.859 39.766 154.593 54.7021L156.499 54.0978ZM140.546 3.2V1.4H138.546V3.2H140.546ZM139.546 2.4H151.046V0.399998H139.546V2.4ZM150.083 1.66932L159.983 37.0693L161.909 36.5307L152.009 1.13067L150.083 1.66932ZM161.921 37.0208C162.719 33.4971 164.084 27.8048 166.017 19.9387L164.075 19.4613C162.142 27.3285 160.773 33.0362 159.971 36.5792L161.921 37.0208ZM166.018 19.9368C167.951 12.0026 169.419 5.89918 170.42 1.62819L168.472 1.17181C167.473 5.43415 166.008 11.5308 164.075 19.4632L166.018 19.9368ZM169.446 2.4H180.746V0.399998H169.446V2.4ZM179.746 1.4V3.2H181.746V1.4H179.746ZM209.927 47.7V46.7H208.927V47.7H209.927ZM222.327 47.7H223.327V46.7H222.327V47.7ZM216.827 70.5L217.381 71.3321L217.385 71.3297L216.827 70.5ZM191.227 70.5L190.661 71.3249L190.67 71.3309L190.679 71.3367L191.227 70.5ZM191.227 3.9L191.781 4.73205L191.785 4.72972L191.227 3.9ZM216.827 3.9L216.261 4.72493L216.27 4.73091L216.279 4.7367L216.827 3.9ZM222.327 26.8V27.8H223.327V26.8H222.327ZM209.927 26.8H208.927V27.8H209.927V26.8ZM208.127 12.1L207.55 12.917L207.577 12.936L207.605 12.9533L208.127 12.1ZM199.827 12L199.305 11.1467L199.294 11.1534L199.283 11.1604L199.827 12ZM199.927 62.5L199.372 63.332L199.388 63.343L199.405 63.3533L199.927 62.5ZM208.127 62.5L208.67 63.3396L208.681 63.332L208.127 62.5ZM210.927 59V47.7H208.927V59H210.927ZM209.927 48.7H222.327V46.7H209.927V48.7ZM221.327 47.7V59.3H223.327V47.7H221.327ZM221.327 59.3C221.327 64.0182 219.619 67.4162 216.268 69.6703L217.385 71.3297C221.367 68.6504 223.327 64.5818 223.327 59.3H221.327ZM216.272 69.668C212.856 71.9451 208.821 73.1 204.127 73.1V75.1C209.165 75.1 213.597 73.8549 217.381 71.332L216.272 69.668ZM204.127 73.1C199.363 73.1 195.258 71.9437 191.774 69.6633L190.679 71.3367C194.528 73.8563 199.024 75.1 204.127 75.1V73.1ZM191.792 69.6751C188.507 67.4243 186.827 64.0259 186.827 59.3H184.827C184.827 64.5741 186.746 68.6424 190.661 71.3249L191.792 69.6751ZM186.827 59.3V15.1H184.827V59.3H186.827ZM186.827 15.1C186.827 10.3015 188.51 6.91264 191.781 4.73205L190.672 3.06795C186.743 5.68736 184.827 9.76519 184.827 15.1H186.827ZM191.785 4.72972C195.268 2.38673 199.368 1.2 204.127 1.2V-0.800005C199.018 -0.800005 194.519 0.479923 190.668 3.07027L191.785 4.72972ZM204.127 1.2C208.816 1.2 212.847 2.38524 216.261 4.72493L217.392 3.07506C213.606 0.481414 209.171 -0.800005 204.127 -0.800005V1.2ZM216.279 4.7367C219.615 6.92064 221.327 10.3092 221.327 15.1H223.327C223.327 9.75744 221.371 5.67935 217.374 3.06329L216.279 4.7367ZM221.327 15.1V26.8H223.327V15.1H221.327ZM222.327 25.8H209.927V27.8H222.327V25.8ZM210.927 26.8V15.5H208.927V26.8H210.927ZM210.927 15.5C210.927 13.6561 210.176 12.1806 208.648 11.2467L207.605 12.9533C208.477 13.4861 208.927 14.2772 208.927 15.5H210.927ZM208.703 11.283C207.384 10.3514 205.844 9.89999 204.127 9.89999V11.9C205.476 11.9 206.603 12.2485 207.55 12.917L208.703 11.283ZM204.127 9.89999C202.31 9.89999 200.689 10.3009 199.305 11.1467L200.348 12.8533C201.364 12.2324 202.609 11.9 204.127 11.9V9.89999ZM199.283 11.1604C197.809 12.1144 197.127 13.6337 197.127 15.5H199.127C199.127 14.1663 199.577 13.3522 200.37 12.8396L199.283 11.1604ZM197.127 15.5V59H199.127V15.5H197.127ZM197.127 59C197.127 60.8425 197.873 62.333 199.372 63.332L200.481 61.6679C199.58 61.0669 199.127 60.2241 199.127 59H197.127ZM199.405 63.3533C200.783 64.1952 202.368 64.6 204.127 64.6V62.6C202.685 62.6 201.47 62.2714 200.448 61.6467L199.405 63.3533ZM204.127 64.6C205.826 64.6 207.353 64.1914 208.67 63.3396L207.583 61.6604C206.633 62.2753 205.494 62.6 204.127 62.6V64.6ZM208.681 63.332C210.18 62.333 210.927 60.8425 210.927 59H208.927C208.927 60.2241 208.473 61.0669 207.572 61.6679L208.681 63.332ZM283.801 73V74H284.801V73H283.801ZM248.801 73H247.801V74H248.801V73ZM249.201 51.8L250.191 51.9366L250.192 51.9322L249.201 51.8ZM250.701 46.4L249.806 45.9528L249.799 45.9679L249.792 45.9833L250.701 46.4ZM252.901 42.5L252.077 41.9335L252.073 41.9394L252.069 41.9453L252.901 42.5ZM256.201 39.2L256.812 39.9913L256.817 39.9875L256.201 39.2ZM260.101 36.5L260.591 37.3716L260.611 37.3602L260.631 37.348L260.101 36.5ZM265.001 33.6L264.535 32.7151L264.518 32.7239L264.502 32.7334L265.001 33.6ZM269.901 29.3L269.006 28.8528L269.002 28.8606L268.999 28.8685L269.901 29.3ZM269.601 12L268.983 12.7863L268.996 12.7966L269.009 12.8064L269.601 12ZM262.901 12L262.309 11.1936L262.296 11.2034L262.283 11.2137L262.901 12ZM261.501 23.1V24.1H262.501V23.1H261.501ZM249.201 23.1H248.201V24.1H249.201V23.1ZM254.301 3.9L254.877 4.71697L254.881 4.71479L254.301 3.9ZM278.301 3.9L277.714 4.70949L277.724 4.71696L278.301 3.9ZM281.101 34.4L282.013 34.8104L281.101 34.4ZM278.201 38.4L278.908 39.1071L278.201 38.4ZM274.901 41.4L275.47 42.2222L275.491 42.2079L275.51 42.1926L274.901 41.4ZM270.701 44.1L271.194 44.9698L271.211 44.9601L271.228 44.9496L270.701 44.1ZM262.501 50L261.687 49.4187L261.682 49.4265L262.501 50ZM261.101 62.5H260.101V63.5H261.101V62.5ZM283.801 62.5H284.801V61.5H283.801V62.5ZM283.801 72H248.801V74H283.801V72ZM249.801 73V58.6H247.801V73H249.801ZM249.801 58.6C249.801 56.0317 249.933 53.8127 250.191 51.9366L248.21 51.6634C247.936 53.654 247.801 55.9683 247.801 58.6H249.801ZM250.192 51.9322C250.447 50.0164 250.923 48.3143 251.61 46.8167L249.792 45.9833C249.011 47.6857 248.487 49.5836 248.21 51.6678L250.192 51.9322ZM251.595 46.8472C252.385 45.2683 253.097 44.0079 253.733 43.0547L252.069 41.9453C251.371 42.992 250.617 44.3317 249.806 45.9528L251.595 46.8472ZM253.725 43.0665C254.38 42.1135 255.395 41.0862 256.812 39.9913L255.589 38.4087C254.073 39.5805 252.888 40.7531 252.077 41.9335L253.725 43.0665ZM256.817 39.9875C258.331 38.8028 259.586 37.9367 260.591 37.3716L259.611 35.6284C258.482 36.2633 257.137 37.1972 255.584 38.4125L256.817 39.9875ZM260.631 37.348C261.681 36.6913 263.302 35.732 265.5 34.4666L264.502 32.7334C262.3 34.0013 260.653 34.9753 259.571 35.652L260.631 37.348ZM265.467 34.4849C268.072 33.1134 269.932 31.5521 270.803 29.7315L268.999 28.8685C268.403 30.1146 266.996 31.4199 264.535 32.7151L265.467 34.4849ZM270.795 29.7472C271.706 27.9247 272.101 25.0551 272.101 21.3H270.101C270.101 25.0115 269.695 27.4753 269.006 28.8528L270.795 29.7472ZM272.101 21.3V15.4H270.101V21.3H272.101ZM272.101 15.4C272.101 13.6323 271.51 12.1601 270.192 11.1936L269.009 12.8064C269.691 13.3066 270.101 14.101 270.101 15.4H272.101ZM270.219 11.2137C269.107 10.3403 267.822 9.89999 266.401 9.89999V11.9C267.379 11.9 268.228 12.1931 268.983 12.7863L270.219 11.2137ZM266.401 9.89999C264.872 9.89999 263.494 10.3248 262.309 11.1936L263.492 12.8064C264.307 12.2085 265.263 11.9 266.401 11.9V9.89999ZM262.283 11.2137C261.041 12.1896 260.501 13.6572 260.501 15.4H262.501C262.501 14.0761 262.894 13.2771 263.519 12.7863L262.283 11.2137ZM260.501 15.4V23.1H262.501V15.4H260.501ZM261.501 22.1H249.201V24.1H261.501V22.1ZM250.201 23.1V15.1H248.201V23.1H250.201ZM250.201 15.1C250.201 10.2783 251.802 6.88779 254.877 4.71696L253.724 3.08303C249.999 5.7122 248.201 9.78834 248.201 15.1H250.201ZM254.881 4.71479C258.164 2.37851 261.991 1.2 266.401 1.2V-0.800005C261.611 -0.800005 257.371 0.488152 253.721 3.08521L254.881 4.71479ZM266.401 1.2C270.741 1.2 274.498 2.37661 277.714 4.70942L278.888 3.09057C275.303 0.49005 271.127 -0.800005 266.401 -0.800005V1.2ZM277.724 4.71696C280.799 6.88779 282.401 10.2783 282.401 15.1H284.401C284.401 9.78834 282.602 5.7122 278.877 3.08303L277.724 4.71696ZM282.401 15.1V21.3H284.401V15.1H282.401ZM282.401 21.3C282.401 24.1143 282.172 26.6115 281.721 28.7983L283.68 29.2016C284.163 26.8551 284.401 24.2191 284.401 21.3H282.401ZM281.721 28.7983C281.262 31.0296 280.747 32.7502 280.189 33.9896L282.013 34.8104C282.655 33.3831 283.206 31.5038 283.68 29.2016L281.721 28.7983ZM280.189 33.9896C279.651 35.1856 278.765 36.4216 277.494 37.6929L278.908 39.1071C280.303 37.7117 281.351 36.281 282.013 34.8104L280.189 33.9896ZM277.494 37.6929C276.172 39.0141 275.108 39.9793 274.291 40.6074L275.51 42.1926C276.427 41.4874 277.562 40.4525 278.908 39.1071L277.494 37.6929ZM274.332 40.5778C273.487 41.1626 272.105 42.0515 270.173 43.2504L271.228 44.9496C273.163 43.7485 274.581 42.8374 275.47 42.2222L274.332 40.5778ZM270.207 43.2302C267.957 44.5064 266.123 45.6511 264.717 46.6633C263.329 47.6615 262.286 48.5808 261.687 49.4188L263.315 50.5812C263.716 50.0192 264.539 49.2551 265.885 48.2867C267.211 47.3322 268.978 46.2269 271.194 44.9698L270.207 43.2302ZM261.682 49.4265C261.085 50.2783 260.705 51.5065 260.464 52.9893C260.219 54.4954 260.101 56.3706 260.101 58.6H262.101C262.101 56.4294 262.216 54.6713 262.438 53.3107C262.663 51.9269 262.983 51.055 263.32 50.5735L261.682 49.4265ZM260.101 58.6V62.5H262.101V58.6H260.101ZM261.101 63.5H283.801V61.5H261.101V63.5ZM282.801 62.5V73H284.801V62.5H282.801ZM312.767 11.8L313.308 10.9588L312.767 11.8ZM305.967 62.7L305.386 63.5137L305.418 63.5369L305.453 63.5575L305.967 62.7ZM312.667 62.7L313.208 63.5412L313.215 63.5367L313.222 63.5321L312.667 62.7ZM297.367 3.7L297.922 4.53206L297.926 4.52958L297.367 3.7ZM321.367 3.6L320.812 4.43205V4.43205L321.367 3.6ZM321.367 70.7L320.812 69.868L321.367 70.7ZM297.367 70.7L296.812 71.5321L296.82 71.537L297.367 70.7ZM315.167 59.8V14.7H313.167V59.8H315.167ZM315.167 14.7C315.167 13.1058 314.588 11.782 313.308 10.9588L312.226 12.6412C312.813 13.018 313.167 13.6276 313.167 14.7H315.167ZM313.308 10.9588C312.191 10.241 310.898 9.89999 309.467 9.89999V11.9C310.57 11.9 311.476 12.159 312.226 12.6412L313.308 10.9588ZM309.467 9.89999C307.732 9.89999 306.247 10.2316 305.179 11.0598C304.063 11.9254 303.567 13.2016 303.567 14.7H305.567C305.567 13.665 305.888 13.0413 306.405 12.6402C306.97 12.2017 307.935 11.9 309.467 11.9V9.89999ZM303.567 14.7V59.8H305.567V14.7H303.567ZM303.567 59.8C303.567 61.3504 304.159 62.6377 305.386 63.5137L306.548 61.8863C305.908 61.429 305.567 60.7829 305.567 59.8H303.567ZM305.453 63.5575C306.629 64.2635 307.979 64.6 309.467 64.6V62.6C308.289 62.6 307.305 62.3365 306.482 61.8425L305.453 63.5575ZM309.467 64.6C310.843 64.6 312.1 64.2533 313.208 63.5412L312.126 61.8588C311.368 62.3467 310.492 62.6 309.467 62.6V64.6ZM313.222 63.5321C314.518 62.6683 315.167 61.3795 315.167 59.8H313.167C313.167 60.7538 312.817 61.3984 312.112 61.868L313.222 63.5321ZM293.267 60.1V14.3H291.267V60.1H293.267ZM293.267 14.3C293.267 9.7668 294.852 6.57867 297.922 4.53205L296.812 2.86795C293.082 5.35466 291.267 9.23319 291.267 14.3H293.267ZM297.926 4.52958C301.211 2.31845 305.045 1.2 309.467 1.2V-0.800005C304.689 -0.800005 300.457 0.414872 296.809 2.87041L297.926 4.52958ZM309.467 1.2C313.826 1.2 317.594 2.28671 320.812 4.43205L321.922 2.76795C318.34 0.37995 314.176 -0.800005 309.467 -0.800005V1.2ZM320.812 4.43205C323.878 6.47586 325.467 9.69415 325.467 14.3H327.467C327.467 9.17252 325.656 5.25747 321.922 2.76795L320.812 4.43205ZM325.467 14.3V60.1H327.467V14.3H325.467ZM325.467 60.1C325.467 64.6332 323.882 67.8213 320.812 69.868L321.922 71.5321C325.652 69.0453 327.467 65.1668 327.467 60.1H325.467ZM320.812 69.868C317.594 72.0133 313.826 73.1 309.467 73.1V75.1C314.176 75.1 318.34 73.92 321.922 71.5321L320.812 69.868ZM309.467 73.1C305.039 73.1 301.201 72.0117 297.914 69.863L296.82 71.537C300.467 73.9216 304.695 75.1 309.467 75.1V73.1ZM297.922 69.868C294.852 67.8213 293.267 64.6332 293.267 60.1H291.267C291.267 65.1668 293.082 69.0453 296.812 71.5321L297.922 69.868ZM355.834 11.8L356.374 10.9588L355.834 11.8ZM349.034 62.7L348.452 63.5137L348.485 63.5369L348.519 63.5575L349.034 62.7ZM355.734 62.7L356.274 63.5412L356.281 63.5367L356.288 63.5321L355.734 62.7ZM340.434 3.7L340.988 4.53206L340.992 4.52958L340.434 3.7ZM364.434 3.6L363.879 4.43205V4.43205L364.434 3.6ZM364.434 70.7L363.879 69.868L364.434 70.7ZM340.434 70.7L339.879 71.5321L339.886 71.537L340.434 70.7ZM358.234 59.8V14.7H356.234V59.8H358.234ZM358.234 14.7C358.234 13.1058 357.655 11.782 356.374 10.9588L355.293 12.6412C355.879 13.018 356.234 13.6276 356.234 14.7H358.234ZM356.374 10.9588C355.258 10.241 353.964 9.89999 352.534 9.89999V11.9C353.636 11.9 354.543 12.159 355.293 12.6412L356.374 10.9588ZM352.534 9.89999C350.799 9.89999 349.314 10.2316 348.246 11.0598C347.13 11.9254 346.634 13.2016 346.634 14.7H348.634C348.634 13.665 348.954 13.0413 349.471 12.6402C350.037 12.2017 351.002 11.9 352.534 11.9V9.89999ZM346.634 14.7V59.8H348.634V14.7H346.634ZM346.634 59.8C346.634 61.3504 347.226 62.6377 348.452 63.5137L349.615 61.8863C348.975 61.429 348.634 60.7829 348.634 59.8H346.634ZM348.519 63.5575C349.696 64.2635 351.046 64.6 352.534 64.6V62.6C351.355 62.6 350.371 62.3365 349.548 61.8425L348.519 63.5575ZM352.534 64.6C353.909 64.6 355.167 64.2533 356.274 63.5412L355.193 61.8588C354.434 62.3467 353.558 62.6 352.534 62.6V64.6ZM356.288 63.5321C357.584 62.6683 358.234 61.3795 358.234 59.8H356.234C356.234 60.7538 355.883 61.3984 355.179 61.868L356.288 63.5321ZM336.334 60.1V14.3H334.334V60.1H336.334ZM336.334 14.3C336.334 9.7668 337.918 6.57867 340.988 4.53205L339.879 2.86795C336.149 5.35466 334.334 9.23319 334.334 14.3H336.334ZM340.992 4.52958C344.277 2.31845 348.112 1.2 352.534 1.2V-0.800005C347.756 -0.800005 343.523 0.414872 339.875 2.87041L340.992 4.52958ZM352.534 1.2C356.892 1.2 360.661 2.28671 363.879 4.43205L364.988 2.76795C361.406 0.37995 357.242 -0.800005 352.534 -0.800005V1.2ZM363.879 4.43205C366.945 6.47586 368.534 9.69415 368.534 14.3H370.534C370.534 9.17252 368.723 5.25747 364.988 2.76795L363.879 4.43205ZM368.534 14.3V60.1H370.534V14.3H368.534ZM368.534 60.1C368.534 64.6332 366.949 67.8213 363.879 69.868L364.988 71.5321C368.718 69.0453 370.534 65.1668 370.534 60.1H368.534ZM363.879 69.868C360.661 72.0133 356.892 73.1 352.534 73.1V75.1C357.242 75.1 361.406 73.92 364.988 71.5321L363.879 69.868ZM352.534 73.1C348.106 73.1 344.267 72.0117 340.981 69.863L339.886 71.537C343.533 73.9216 347.762 75.1 352.534 75.1V73.1ZM340.988 69.868C337.918 67.8213 336.334 64.6332 336.334 60.1H334.334C334.334 65.1668 336.149 69.0453 339.879 71.5321L340.988 69.868ZM269.701 11.8L270.242 10.9588L269.701 11.8ZM262.901 62.7L262.32 63.5137L262.352 63.5369L262.386 63.5575L262.901 62.7ZM269.601 62.7L270.142 63.5412L270.149 63.5367L270.155 63.5321L269.601 62.7ZM254.301 3.7L254.855 4.53206L254.859 4.52958L254.301 3.7ZM278.301 3.6L277.746 4.43205V4.43205L278.301 3.6ZM278.301 70.7L277.746 69.868L278.301 70.7ZM254.301 70.7L253.746 71.5321L253.754 71.537L254.301 70.7ZM272.101 59.8V14.7H270.101V59.8H272.101ZM272.101 14.7C272.101 13.1058 271.522 11.782 270.242 10.9588L269.16 12.6412C269.746 13.018 270.101 13.6276 270.101 14.7H272.101ZM270.242 10.9588C269.125 10.241 267.831 9.89999 266.401 9.89999V11.9C267.504 11.9 268.41 12.159 269.16 12.6412L270.242 10.9588ZM266.401 9.89999C264.666 9.89999 263.181 10.2316 262.113 11.0598C260.997 11.9254 260.501 13.2016 260.501 14.7H262.501C262.501 13.665 262.821 13.0413 263.339 12.6402C263.904 12.2017 264.869 11.9 266.401 11.9V9.89999ZM260.501 14.7V59.8H262.501V14.7H260.501ZM260.501 59.8C260.501 61.3504 261.093 62.6377 262.32 63.5137L263.482 61.8863C262.842 61.429 262.501 60.7829 262.501 59.8H260.501ZM262.386 63.5575C263.563 64.2635 264.913 64.6 266.401 64.6V62.6C265.222 62.6 264.239 62.3365 263.415 61.8425L262.386 63.5575ZM266.401 64.6C267.776 64.6 269.034 64.2533 270.142 63.5412L269.06 61.8588C268.301 62.3467 267.425 62.6 266.401 62.6V64.6ZM270.155 63.5321C271.451 62.6683 272.101 61.3795 272.101 59.8H270.101C270.101 60.7538 269.75 61.3984 269.046 61.868L270.155 63.5321ZM250.201 60.1V14.3H248.201V60.1H250.201ZM250.201 14.3C250.201 9.7668 251.786 6.57867 254.855 4.53205L253.746 2.86795C250.016 5.35466 248.201 9.23319 248.201 14.3H250.201ZM254.859 4.52958C258.144 2.31845 261.979 1.2 266.401 1.2V-0.800005C261.623 -0.800005 257.391 0.414872 253.742 2.87041L254.859 4.52958ZM266.401 1.2C270.759 1.2 274.528 2.28671 277.746 4.43205L278.855 2.76795C275.273 0.37995 271.109 -0.800005 266.401 -0.800005V1.2ZM277.746 4.43205C280.812 6.47586 282.401 9.69415 282.401 14.3H284.401C284.401 9.17252 282.59 5.25747 278.855 2.76795L277.746 4.43205ZM282.401 14.3V60.1H284.401V14.3H282.401ZM282.401 60.1C282.401 64.6332 280.816 67.8213 277.746 69.868L278.855 71.5321C282.586 69.0453 284.401 65.1668 284.401 60.1H282.401ZM277.746 69.868C274.528 72.0133 270.759 73.1 266.401 73.1V75.1C271.109 75.1 275.273 73.92 278.855 71.5321L277.746 69.868ZM266.401 73.1C261.973 73.1 258.134 72.0117 254.848 69.863L253.754 71.537C257.401 73.9216 261.629 75.1 266.401 75.1V73.1ZM254.855 69.868C251.786 67.8213 250.201 64.6332 250.201 60.1H248.201C248.201 65.1668 250.016 69.0453 253.746 71.5321L254.855 69.868ZM312.767 11.8L313.308 10.9588L312.767 11.8ZM305.967 62.7L305.386 63.5137L305.418 63.5369L305.453 63.5575L305.967 62.7ZM312.667 62.7L313.208 63.5412L313.215 63.5367L313.222 63.5321L312.667 62.7ZM297.367 3.7L297.922 4.53206L297.926 4.52958L297.367 3.7ZM321.367 3.6L320.812 4.43205V4.43205L321.367 3.6ZM321.367 70.7L320.812 69.868L321.367 70.7ZM297.367 70.7L296.812 71.5321L296.82 71.537L297.367 70.7ZM315.167 59.8V14.7H313.167V59.8H315.167ZM315.167 14.7C315.167 13.1058 314.588 11.782 313.308 10.9588L312.226 12.6412C312.813 13.018 313.167 13.6276 313.167 14.7H315.167ZM313.308 10.9588C312.191 10.241 310.898 9.89999 309.467 9.89999V11.9C310.57 11.9 311.476 12.159 312.226 12.6412L313.308 10.9588ZM309.467 9.89999C307.732 9.89999 306.247 10.2316 305.179 11.0598C304.063 11.9254 303.567 13.2016 303.567 14.7H305.567C305.567 13.665 305.888 13.0413 306.405 12.6402C306.97 12.2017 307.935 11.9 309.467 11.9V9.89999ZM303.567 14.7V59.8H305.567V14.7H303.567ZM303.567 59.8C303.567 61.3504 304.159 62.6377 305.386 63.5137L306.548 61.8863C305.908 61.429 305.567 60.7829 305.567 59.8H303.567ZM305.453 63.5575C306.629 64.2635 307.979 64.6 309.467 64.6V62.6C308.289 62.6 307.305 62.3365 306.482 61.8425L305.453 63.5575ZM309.467 64.6C310.843 64.6 312.1 64.2533 313.208 63.5412L312.126 61.8588C311.368 62.3467 310.492 62.6 309.467 62.6V64.6ZM313.222 63.5321C314.518 62.6683 315.167 61.3795 315.167 59.8H313.167C313.167 60.7538 312.817 61.3984 312.112 61.868L313.222 63.5321ZM293.267 60.1V14.3H291.267V60.1H293.267ZM293.267 14.3C293.267 9.7668 294.852 6.57867 297.922 4.53205L296.812 2.86795C293.082 5.35466 291.267 9.23319 291.267 14.3H293.267ZM297.926 4.52958C301.211 2.31845 305.045 1.2 309.467 1.2V-0.800005C304.689 -0.800005 300.457 0.414872 296.809 2.87041L297.926 4.52958ZM309.467 1.2C313.826 1.2 317.594 2.28671 320.812 4.43205L321.922 2.76795C318.34 0.37995 314.176 -0.800005 309.467 -0.800005V1.2ZM320.812 4.43205C323.878 6.47586 325.467 9.69415 325.467 14.3H327.467C327.467 9.17252 325.656 5.25747 321.922 2.76795L320.812 4.43205ZM325.467 14.3V60.1H327.467V14.3H325.467ZM325.467 60.1C325.467 64.6332 323.882 67.8213 320.812 69.868L321.922 71.5321C325.652 69.0453 327.467 65.1668 327.467 60.1H325.467ZM320.812 69.868C317.594 72.0133 313.826 73.1 309.467 73.1V75.1C314.176 75.1 318.34 73.92 321.922 71.5321L320.812 69.868ZM309.467 73.1C305.039 73.1 301.201 72.0117 297.914 69.863L296.82 71.537C300.467 73.9216 304.695 75.1 309.467 75.1V73.1ZM297.922 69.868C294.852 67.8213 293.267 64.6332 293.267 60.1H291.267C291.267 65.1668 293.082 69.0453 296.812 71.5321L297.922 69.868ZM355.834 11.8L356.374 10.9588L355.834 11.8ZM349.034 62.7L348.452 63.5137L348.485 63.5369L348.519 63.5575L349.034 62.7ZM355.734 62.7L356.274 63.5412L356.281 63.5367L356.288 63.5321L355.734 62.7ZM340.434 3.7L340.988 4.53206L340.992 4.52958L340.434 3.7ZM364.434 3.6L363.879 4.43205V4.43205L364.434 3.6ZM364.434 70.7L363.879 69.868L364.434 70.7ZM340.434 70.7L339.879 71.5321L339.886 71.537L340.434 70.7ZM358.234 59.8V14.7H356.234V59.8H358.234ZM358.234 14.7C358.234 13.1058 357.655 11.782 356.374 10.9588L355.293 12.6412C355.879 13.018 356.234 13.6276 356.234 14.7H358.234ZM356.374 10.9588C355.258 10.241 353.964 9.89999 352.534 9.89999V11.9C353.636 11.9 354.543 12.159 355.293 12.6412L356.374 10.9588ZM352.534 9.89999C350.799 9.89999 349.314 10.2316 348.246 11.0598C347.13 11.9254 346.634 13.2016 346.634 14.7H348.634C348.634 13.665 348.954 13.0413 349.471 12.6402C350.037 12.2017 351.002 11.9 352.534 11.9V9.89999ZM346.634 14.7V59.8H348.634V14.7H346.634ZM346.634 59.8C346.634 61.3504 347.226 62.6377 348.452 63.5137L349.615 61.8863C348.975 61.429 348.634 60.7829 348.634 59.8H346.634ZM348.519 63.5575C349.696 64.2635 351.046 64.6 352.534 64.6V62.6C351.355 62.6 350.371 62.3365 349.548 61.8425L348.519 63.5575ZM352.534 64.6C353.909 64.6 355.167 64.2533 356.274 63.5412L355.193 61.8588C354.434 62.3467 353.558 62.6 352.534 62.6V64.6ZM356.288 63.5321C357.584 62.6683 358.234 61.3795 358.234 59.8H356.234C356.234 60.7538 355.883 61.3984 355.179 61.868L356.288 63.5321ZM336.334 60.1V14.3H334.334V60.1H336.334ZM336.334 14.3C336.334 9.7668 337.918 6.57867 340.988 4.53205L339.879 2.86795C336.149 5.35466 334.334 9.23319 334.334 14.3H336.334ZM340.992 4.52958C344.277 2.31845 348.112 1.2 352.534 1.2V-0.800005C347.756 -0.800005 343.523 0.414872 339.875 2.87041L340.992 4.52958ZM352.534 1.2C356.892 1.2 360.661 2.28671 363.879 4.43205L364.988 2.76795C361.406 0.37995 357.242 -0.800005 352.534 -0.800005V1.2ZM363.879 4.43205C366.945 6.47586 368.534 9.69415 368.534 14.3H370.534C370.534 9.17252 368.723 5.25747 364.988 2.76795L363.879 4.43205ZM368.534 14.3V60.1H370.534V14.3H368.534ZM368.534 60.1C368.534 64.6332 366.949 67.8213 363.879 69.868L364.988 71.5321C368.718 69.0453 370.534 65.1668 370.534 60.1H368.534ZM363.879 69.868C360.661 72.0133 356.892 73.1 352.534 73.1V75.1C357.242 75.1 361.406 73.92 364.988 71.5321L363.879 69.868ZM352.534 73.1C348.106 73.1 344.267 72.0117 340.981 69.863L339.886 71.537C343.533 73.9216 347.762 75.1 352.534 75.1V73.1ZM340.988 69.868C337.918 67.8213 336.334 64.6332 336.334 60.1H334.334C334.334 65.1668 336.149 69.0453 339.879 71.5321L340.988 69.868Z" fill="white"/>
</svg>
